/vscmnt/brussel_pixiu_data/_data_brussel/112/vsc11236/PredSimResults/SUBJ11mtu3D/worker7.mot
version=1
nRows=4
nColumns=50
inDegrees=yes
endheader
                time	         pelvis_tilt	         pelvis_list	     pelvis_rotation	           pelvis_tx	           pelvis_ty	           pelvis_tz	       hip_flexion_r	     hip_adduction_r	      hip_rotation_r	        knee_angle_r	       ankle_angle_r	         mtp_angle_r	       hip_flexion_l	     hip_adduction_l	      hip_rotation_l	        knee_angle_l	       ankle_angle_l	         mtp_angle_l	    lumbar_extension	      lumbar_bending	     lumbar_rotation	 ercspn_r/activation	 intobl_r/activation	 extobl_r/activation	    abd_r/activation	    add_r/activation	hamstrings_r/activation	bifemsh_r/activation	glut_max_r/activation	iliopsoas_r/activation	rect_fem_r/activation	  vasti_r/activation	gastroc_r/activation	 soleus_r/activation	tib_ant_r/activation	 ercspn_l/activation	 intobl_l/activation	 extobl_l/activation	    abd_l/activation	    add_l/activation	hamstrings_l/activation	bifemsh_l/activation	glut_max_l/activation	iliopsoas_l/activation	rect_fem_l/activation	  vasti_l/activation	gastroc_l/activation	 soleus_l/activation	tib_ant_l/activation	
          0.62527093	         -3.55897804	          2.59552273	         -5.01086354	          0.68779802	          0.94510694	          0.00879357	        -13.35197051	         -3.33802856	          0.46412499	         -9.04527545	         14.05052343	         23.90835355	         31.27473517	          0.51244481	         -2.79744422	        -11.17031092	          4.94753359	          0.23537291	        -13.46531338	         -1.09828255	          0.34098372	          0.01000035	          0.01000008	          0.01000010	          0.03596265	          0.01367384	          0.02833486	          0.19665051	          0.03113967	          0.37170204	          0.01000037	          0.01000014	          0.13963662	          0.20436587	          0.01000001	          0.04824064	          0.22294856	          0.05530542	          0.02021811	          0.16928717	          0.06087659	          0.15242813	          0.06518575	          0.06345293	          0.02946030	          0.01106331	          0.01000010	          0.01000002	          0.40287697	
          0.63777634	         -3.60076292	          2.63823736	         -5.05588642	          0.70498022	          0.94305142	          0.00798798	        -13.82073582	         -3.49439856	          0.13549729	        -10.04086027	         13.62852637	         25.63611249	         31.03986608	          0.68257375	         -2.86765256	        -12.44631495	          4.67092704	          0.19428553	        -13.08171326	         -1.51040585	          0.54186174	          0.01770520	          0.01000006	          0.01000020	          0.02975998	          0.02757188	          0.03742962	          0.16273317	          0.02576885	          0.38426026	          0.01000016	          0.01000015	          0.11555272	          0.18708599	          0.01000000	          0.03992038	          0.18449564	          0.04576659	          0.03368914	          0.16950923	          0.06394121	          0.12613808	          0.11387939	          0.05250885	          0.02437925	          0.01000007	          0.01484228	          0.01764832	          0.41441427	
          0.65028176	         -3.62701110	          2.66757663	         -5.07702425	          0.72236373	          0.94129185	          0.00711239	        -14.10528541	         -3.63939033	         -0.20354810	        -11.40195730	         13.09304796	         27.47013280	         30.75512312	          0.82374566	         -2.95758586	        -13.71463512	          4.32751644	          0.19470691	        -12.69157513	         -1.91171486	          0.73973060	          0.03549521	          0.01000003	          0.01000011	          0.02462711	          0.02281647	          0.03097699	          0.13466573	          0.02132436	          0.41162423	          0.01000040	          0.01000035	          0.09562270	          0.15481826	          0.01000000	          0.04873980	          0.15267467	          0.03787297	          0.10480848	          0.20629134	          0.05291318	          0.10438242	          0.11861573	          0.04345235	          0.02017456	          0.01000006	          0.01228236	          0.01460442	          0.44343758	
          0.66278718	         -3.63762071	          2.67832909	         -5.07215541	          0.73973555	          0.94000173	          0.00616342	        -14.10140213	         -3.76926382	         -0.54527950	        -13.28074292	         12.40887549	         29.43493856	         30.49836715	          0.94150334	         -3.07946234	        -15.01246906	          3.84459204	          0.16102582	        -12.32002426	         -2.29474527	          0.92895831	          0.05684718	          0.01000004	          0.01000008	          0.02037954	          0.04840090	          0.03169324	          0.11143927	          0.01764643	          0.41629150	          0.01000022	          0.01000017	          0.07913012	          0.12811588	          0.01000000	          0.05309277	          0.12634203	          0.03134081	          0.13289691	          0.23771425	          0.04823028	          0.08637906	          0.12256466	          0.03595789	          0.01669512	          0.06117929	          0.01016400	          0.01208554	          0.47101232	
